<?xml version="1.0" encoding="utf-8"?>
<!-- Uploaded to: SVG Repo, www.svgrepo.com, Generator: SVG Repo Mixer Tools -->
<svg width="800px" height="800px" viewBox="0 0 1024 1024" class="icon"  version="1.1" xmlns="http://www.w3.org/2000/svg"><path d="M828.783 160.983c174.954 174.945 174.954 458.619 0 633.594-174.954 174.934-458.61 174.934-633.573 0-174.947-174.975-174.947-458.648 0-633.594 83.677-83.679 219.34-83.679 303.018 0l165.284 165.292c15.199 15.207 39.888 15.207 55.087 0 15.219-15.229 15.219-39.881 0-55.098-30.416-30.434-30.416-79.76 0-110.194 30.415-30.417 79.758-30.417 110.184 0z" fill="#FCB814" /><path d="M420.315 141.505l165.284 165.291c15.197 15.208 78.845 54.164 94.042 38.957 0.575-0.575 0.977-1.244 1.507-1.845L498.23 160.983c-38.751-38.752-88.66-59.32-139.383-62.179 22.228 10.297 43.137 24.367 61.468 42.701z" fill="#030504" /><path d="M828.783 160.983c-21.025-21.019-50.995-27.158-77.598-19.131 174.62 174.974 174.527 458.384-0.316 633.246-105.18 105.168-249.59 146.626-386.108 125.345 157.149 54.593 338.496 19.645 464.023-105.867 174.955-174.973 174.955-458.648-0.001-633.593zM324.882 648.762c22.807-22.806 59.824-22.806 82.632 0 22.825 22.807 22.825 59.824 0 82.632-22.808 22.827-59.825 22.827-82.632 0-22.808-22.808-22.808-59.825 0-82.632z" fill="#030504" /><path d="M305.403 629.284c22.807-22.807 59.824-22.807 82.632 0 22.827 22.806 22.827 59.825 0 82.63-22.807 22.827-59.824 22.827-82.632 0-22.808-22.805-22.808-59.824 0-82.63z" fill="#0DB14B" /><path d="M286.324 450.229c15.219 15.219 15.219 39.871 0 55.089-15.217 15.217-39.87 15.217-55.087 0-15.226-15.218-15.226-39.871 0-55.089 15.217-15.207 39.87-15.207 55.087 0z" fill="#030504" /><path d="M266.845 450.229c15.219 15.219 15.219 39.871 0 55.089-15.216 15.217-39.87 15.217-55.086 0-15.228-15.218-15.228-39.871 0-55.089 15.216-15.207 39.871-15.207 55.086 0z" fill="#2577FF" /><path d="M559.051 772.729c-22.817-22.797-22.836-59.805 0-82.632 22.799-22.808 59.816-22.808 82.623 0 22.835 22.827 22.835 59.835 0 82.632-22.826 22.827-59.804 22.827-82.623 0zM421.284 249.34c30.427 30.394 30.427 79.759 0 110.184-30.386 30.406-79.757 30.406-110.174 0-30.416-30.425-30.416-79.79 0-110.184 30.417-30.418 79.788-30.418 110.174 0z" fill="#030504" /><path d="M401.807 229.861c30.425 30.395 30.425 79.759 0 110.184-30.386 30.407-79.759 30.407-110.175 0-30.415-30.425-30.415-79.789 0-110.184 30.416-30.416 79.788-30.416 110.175 0zM539.574 753.25c-22.817-22.797-22.838-59.805 0-82.63 22.797-22.807 59.814-22.807 82.621 0 22.835 22.826 22.835 59.833 0 82.63-22.826 22.827-59.804 22.827-82.621 0z" fill="#FF3B30" /></svg>